# xmcd CD database file
#
# Track frame offsets:
#	150
#	24387
#	47603
#	73615
#	96160
#	110093
#	127022
#	143767
#	160134
#
# Disc length: 2411 seconds
#
# Revision: 0
# Processed by: cddbd v1.5.2PL0 Copyright (c) Steve Scherf et al.
# Submitted via: CDex 1.70beta2
#
DISCID=79096909
DTITLE=Maggie Palomo - EL son de L.A.
DYEAR=2005
DGENRE=Salsa
TTITLE0=De mujer a mujer
TTITLE1=Bembe pa' Eleggua
TTITLE2=Marvin
TTITLE3=La negra Tomasa
TTITLE4=El son de L.A.
TTITLE5=Desavenencias
TTITLE6=Merengue Fresco
TTITLE7=Amor de medianoche
TTITLE8=El son de L.A. (re-mix)
EXTD=YEAR: 2005
EXTT0=
EXTT1=
EXTT2=
EXTT3=
EXTT4=
EXTT5=
EXTT6=
EXTT7=
EXTT8=
PLAYORDER=
